<svg width="41" height="26" viewBox="0 0 41 26" fill="none" xmlns="http://www.w3.org/2000/svg">
<path fill-rule="evenodd" clip-rule="evenodd" d="M21.2326 13.9266L22.7916 8.15419H24.1215L26.8619 18.2164L27.8496 14.4584L28.5339 13.9266H31.0807L32.6397 8.15419H34.047L35.5706 13.9266H40.0572C40.3994 12.9371 40.5898 11.8735 40.5898 10.7745C40.5898 6.63293 37.3943 3.32935 33.4789 3.32935C31.3873 3.32935 29.5604 4.24146 28.2305 5.68536C26.9361 4.24146 25.0737 3.32935 23.0208 3.32935C19.1022 3.32935 15.8679 6.63293 15.8679 10.7745C15.8679 11.8735 16.0971 12.9371 16.4037 13.9266H21.2326Z" fill="#D19FE6"/>
<path fill-rule="evenodd" clip-rule="evenodd" d="M35.038 15.3704L34.3537 14.8354L33.3272 11.0774L32.2976 14.8354L31.6165 15.3704H29.1052L27.5462 21.1396H26.1776L23.4372 11.0774L22.4495 14.8354L21.7652 15.3704H16.9331C19.9382 21.8229 28.2305 25.9999 28.2305 25.9999C28.2305 25.9999 36.5196 21.8229 39.5247 15.3704H35.038Z" fill="white"/>
<path fill-rule="evenodd" clip-rule="evenodd" d="M16.5426 14.3907C17.9887 14.2038 19.3573 13.4432 20.6129 12.1153C20.8033 11.9251 20.8776 11.6576 20.8388 11.4288C22.4753 9.4563 23.4631 6.71997 23.4631 4.63468C23.4631 1.40523 21.904 1.06359 19.3573 0.531796H19.3185C19.1668 0.228833 18.8634 0 18.4825 0C17.9112 0 17.4948 0.418991 17.4948 0.947564C17.4948 1.44391 17.9112 1.82422 18.4825 1.82422C18.673 1.82422 18.9021 1.74687 19.0539 1.63406C21.5619 2.16586 22.2462 2.31734 22.2462 4.63468C22.2462 6.45568 21.2972 8.92451 19.8899 10.7101C19.622 10.7101 19.396 10.8229 19.2443 11.013C18.4825 11.7736 17.3431 12.7212 15.9358 12.7212C14.5672 12.7212 13.3858 11.7736 12.666 11.013C12.5111 10.8229 12.2464 10.7455 12.0172 10.7101C10.6099 8.92451 9.65765 6.45568 9.65765 4.63468C9.65765 2.31734 10.3064 2.16586 12.8177 1.63406C13.0081 1.74687 13.1954 1.82422 13.4245 1.82422C13.9571 1.82422 14.4122 1.44391 14.4122 0.947564C14.4122 0.418991 13.9571 0 13.4245 0C13.0436 0 12.7015 0.228833 12.5498 0.531796C9.9643 1.06359 8.40526 1.40523 8.40526 4.63468C8.40526 6.71997 9.43171 9.4563 11.065 11.4675C11.0295 11.6576 11.1037 11.9251 11.2587 12.1153C12.5111 13.4432 13.8409 14.2038 15.2482 14.3907L15.2127 18.4549C15.2127 21.2654 12.779 23.5441 9.77386 23.5441C6.76875 23.5441 4.29624 21.2654 4.29624 18.4549V14.8871C6.04572 14.6196 7.37881 13.2143 7.37881 11.5061C7.37881 9.64646 5.70357 8.08975 3.6894 8.08975C1.67201 8.08975 0 9.64646 0 11.5061C0 13.2143 1.32986 14.6196 3.07935 14.8871V18.4549C3.07935 21.9132 6.08445 24.6818 9.77386 24.6818C13.4633 24.6818 16.4684 21.9132 16.4684 18.4549V14.3907H16.5426Z" fill="white"/>
</svg>
